<svg width="128" height="53" viewBox="0 0 128 53" fill="none" xmlns="http://www.w3.org/2000/svg">
<g clip-path="url(#clip0_12167_38654)">
<path d="M70.5976 1.57802C70.5976 0.803293 69.9703 0.176025 69.1956 0.176025H67.0827C66.3101 0.176025 65.6807 0.805494 65.6807 1.57802L65.6719 27.3598C65.6719 28.1345 66.2991 28.7618 67.0739 28.7618H69.1868C69.9593 28.7618 70.5888 28.1323 70.5888 27.3598L70.5976 1.57802Z" fill="#11F4D6"/>
<path d="M62.3925 1.57802C62.3925 0.803293 61.7652 0.176025 60.9905 0.176025H58.8776C58.1051 0.176025 57.4756 0.805494 57.4756 1.57802L57.4668 27.3598C57.4668 28.1345 58.0941 28.7618 58.8688 28.7618H60.9817C61.7542 28.7618 62.3837 28.1323 62.3837 27.3598L62.3925 1.57802Z" fill="#11F4D6"/>
<path d="M78.0921 20.4027C78.0921 20.4027 78.0811 20.4093 78.0811 20.4159C78.4134 22.8964 80.5726 24.6857 84.0743 24.6857C85.5643 24.6857 87.4329 24.2279 88.694 23.4224C89.1782 23.1121 89.8055 23.1539 90.2149 23.5567L91.6961 25.0203C92.2287 25.5463 92.1825 26.4289 91.5816 26.8757C89.4709 28.4493 86.5833 29.2109 83.9906 29.2109C77.0577 29.2109 72.9375 24.9278 72.9375 18.4857C72.9375 12.0436 77.0973 7.96301 83.6231 7.96301C90.1488 7.96301 94.5485 12.1206 93.7782 20.3917C93.7782 20.3983 93.7738 20.4027 93.7672 20.4027H78.0877H78.0921ZM88.9977 16.2826C88.9977 16.2826 89.0088 16.276 89.0088 16.2694C88.6764 13.6678 86.6405 12.3671 83.7903 12.3671C81.103 12.3671 78.9042 13.6678 78.1669 16.2694C78.1669 16.276 78.1713 16.2826 78.1779 16.2826H89H88.9977Z" fill="#11F4D6"/>
<path d="M54.2066 9.90643C54.2066 9.1317 53.5793 8.50443 52.8046 8.50443H50.6939C49.9191 8.50443 49.2919 9.1317 49.2897 9.90643V11.2776L49.2721 11.3502C48.1298 9.35179 45.5613 8.08846 42.8695 8.08846C36.9974 8.04884 32.3887 11.6782 32.3887 18.6111C32.3887 25.5441 36.7927 29.3363 42.7463 29.2967C44.989 29.2571 48.1298 28.1148 49.2721 25.7488L49.2831 25.7994V27.3643C49.2831 28.139 49.9103 28.7663 50.6851 28.7663H52.798C53.5705 28.7663 54.2 28.1368 54.2 27.3643L54.2088 10.4303V9.91083L54.2066 9.90643ZM44.3068 24.6593C40.5608 25.1589 37.3628 22.8171 37.3628 18.6089C37.3628 14.4007 40.5498 12.1162 44.2869 12.596C51.1671 13.4786 51.1825 23.7437 44.3068 24.6615V24.6593Z" fill="#11F4D6"/>
<path d="M108.997 27.3069L108.132 24.6636C107.992 24.2344 107.532 23.9967 107.105 24.142C106.557 24.3269 105.978 24.4391 105.454 24.4391C103.904 24.4391 102.844 23.5015 102.844 21.5845V12.8886H107.16C107.827 12.8886 108.366 12.3494 108.366 11.6825V9.86451C108.366 9.19763 107.827 8.6584 107.16 8.6584H102.883V8.61218V3.92418C102.883 3.37835 102.41 2.95356 101.866 3.01079L98.73 3.34533C98.2612 3.39595 97.9069 3.78992 97.9069 4.26092V8.654H95.3604C94.6935 8.654 94.1543 9.19322 94.1543 9.86011V11.6781C94.1543 12.345 94.6935 12.8842 95.3604 12.8842H97.9069V21.5823C97.9069 26.5982 100.762 29.0875 105.126 28.9224C106.356 28.8894 107.369 28.72 108.474 28.3502C108.905 28.2049 109.138 27.7339 108.995 27.3025L108.997 27.3069Z" fill="#11F4D6"/>
<path d="M116.48 9.89541C116.48 9.12068 115.853 8.49341 115.078 8.49341H112.965C112.193 8.49341 111.563 9.12288 111.563 9.89541L111.555 27.3599C111.555 28.1346 112.182 28.7619 112.957 28.7619H115.07C115.842 28.7619 116.472 28.1324 116.472 27.3599L116.48 9.89541Z" fill="#11F4D6"/>
<path d="M124.582 9.89541C124.582 9.12068 123.955 8.49341 123.18 8.49341H121.067C120.295 8.49341 119.665 9.12288 119.665 9.89541L119.656 27.3599C119.656 28.1346 120.284 28.7619 121.058 28.7619H123.171C123.944 28.7619 124.573 28.1324 124.573 27.3599L124.582 9.89541Z" fill="#11F4D6"/>
<path d="M116.952 2.90524C116.952 6.77889 111.08 6.77889 111.08 2.90524C111.08 -0.968413 116.952 -0.968413 116.952 2.90524Z" fill="#11F4D6"/>
<path d="M125.056 2.90524C125.056 6.77889 119.184 6.77889 119.184 2.90524C119.184 -0.968413 125.056 -0.968413 125.056 2.90524Z" fill="#11F4D6"/>
<path d="M31.4228 10.4587C31.4228 9.08316 30.3069 7.96729 28.9313 7.96729C27.8111 7.96729 26.8757 8.7112 26.5609 9.72804C26.5411 9.77426 26.5213 9.81827 26.5059 9.8689L22.3109 23.5697C22.2779 23.5697 22.2801 23.5697 22.2493 23.5697L18.4285 10.4411C18.1005 9.31646 17.0705 8.54393 15.8996 8.54393H15.4924C14.3193 8.54393 13.2893 9.31866 12.9635 10.4455L9.17791 23.5697C9.1449 23.5697 9.1471 23.5697 9.11629 23.5697C9.11629 23.5697 4.83766 9.6488 4.82886 9.62679C4.48551 8.66278 3.57432 7.96729 2.49146 7.96729C1.11588 7.96729 0 9.08316 0 10.4587C0 10.8461 0.0440188 11.2159 0.198084 11.5724C0.688894 13.0294 5.18101 26.147 5.18101 26.147C5.72904 27.7185 7.16626 28.7728 8.83017 28.7728H9.00184C10.701 28.7728 12.2174 27.6987 12.7764 26.092L15.6839 16.2054C15.7191 16.2054 18.2106 25.1676 18.4549 25.9159C19.0007 27.5865 20.3895 28.7706 22.1392 28.7706H22.2735C24.1333 28.7706 25.7884 27.5931 26.3981 25.8345C26.3981 25.8345 30.9188 12.4308 31.2423 11.4558C31.359 11.0992 31.4228 10.8109 31.4228 10.4543V10.4587Z" fill="#11F4D6"/>
<path d="M125.816 36.573C124.61 36.573 123.633 37.5502 123.633 38.7563C123.633 39.9624 124.61 40.9397 125.816 40.9397C127.022 40.9397 127.999 39.9624 127.999 38.7563C127.999 37.5502 127.022 36.573 125.816 36.573Z" fill="white"/>
<path d="M118.508 39.6366C115.163 39.6366 112.44 42.357 112.438 45.7024C112.438 42.357 109.715 39.6366 106.372 39.6366C103.029 39.6366 100.313 42.3504 100.304 45.687L100.317 36.1019C100.317 35.6705 99.9652 35.3184 99.5339 35.3184H98.3519C97.9206 35.3184 97.5684 35.6705 97.5684 36.1019L97.5596 40.6292L97.4033 40.5324C95.6448 39.4451 93.4637 39.3417 91.5665 40.2507C89.8739 41.0628 88.6634 42.6541 88.2915 44.4963C88.0516 43.2968 87.4529 42.2007 86.5461 41.3291C85.3444 40.1736 83.7663 39.575 82.1024 39.6366C80.6036 39.6938 79.2324 40.3233 78.1958 41.3027C77.0006 40.079 75.3367 39.4715 73.5826 39.63C72.6142 39.7158 71.6568 40.1186 70.8072 40.7943V40.4774C70.8072 40.1032 70.5035 39.7973 70.1271 39.7973H68.8021C68.4192 39.7973 68.1089 40.1098 68.1089 40.4928V45.5857C68.045 42.2953 65.3533 39.6366 62.0497 39.6366C58.7461 39.6366 55.9795 42.357 55.9795 45.7024C55.9795 42.357 53.2591 39.6366 49.9159 39.6366C46.5727 39.6366 43.8457 42.3592 43.8457 45.7046C43.8457 49.05 46.5683 51.7704 49.9159 51.7704C53.2635 51.7704 55.9795 49.05 55.9795 45.7046C55.9795 49.05 58.7042 51.7704 62.0497 51.7704C65.3951 51.7704 68.0472 49.1116 68.1089 45.8212V51.0595C68.1089 51.4336 68.4148 51.7396 68.7889 51.7396H70.1139C70.4969 51.7396 70.8072 51.427 70.8072 51.0463L70.8644 45.5527C70.8644 43.8294 72.0661 42.5044 73.7851 42.3261C74.8701 42.2117 75.9442 42.6365 76.6573 43.4618L76.6991 43.5103C76.4328 44.1793 76.2809 44.9012 76.2743 45.654C76.2479 48.7749 78.5655 51.3874 81.6644 51.733L81.9968 51.7594C82.1772 51.7726 82.3577 51.777 82.5492 51.777C82.6218 51.777 82.6879 51.777 82.7605 51.7704C84.3276 51.7286 85.6459 51.284 86.6738 50.452L86.6914 50.441C86.7068 50.4322 86.7222 50.4234 86.7376 50.4102L87.1646 50.025C87.2834 49.9172 87.3407 49.7653 87.323 49.6047C87.3032 49.4396 87.2042 49.2921 87.0567 49.2107L85.4434 48.3193C85.2344 48.2027 85.0297 48.2181 84.8228 48.3611L84.5345 48.546C84.0128 48.8541 83.3966 49.028 82.7495 49.0456L82.5998 49.05C82.2983 49.05 81.999 49.0236 81.7085 48.9686C80.7202 48.7793 79.8795 48.1542 79.4063 47.2563L79.2588 46.8953L88.2893 46.8997C88.5006 47.965 88.998 48.9576 89.7551 49.7873C90.904 51.0485 92.5415 51.7726 94.2428 51.7726C97.5838 51.7726 100.302 49.0544 100.306 45.7134C100.311 49.0544 103.031 51.7726 106.374 51.7726C109.718 51.7726 112.44 49.0522 112.44 45.7068C112.44 49.0522 115.163 51.7726 118.51 51.7726C121.858 51.7726 124.576 49.05 124.576 45.7068C124.576 42.3636 121.856 39.6388 118.51 39.6388L118.508 39.6366ZM49.9137 49.0302C48.0803 49.0302 46.5881 47.538 46.5881 45.7046C46.5881 43.8712 48.0803 42.379 49.9137 42.379C51.7471 42.379 53.2371 43.8712 53.2371 45.7046C53.2371 47.538 51.7471 49.0302 49.9137 49.0302ZM62.0475 49.0302C60.2141 49.0302 58.7218 47.538 58.7218 45.7046C58.7218 43.8712 60.2141 42.379 62.0475 42.379C63.8808 42.379 65.3687 43.8712 65.3687 45.7046C65.3687 47.538 63.8786 49.0302 62.0475 49.0302ZM79.2808 44.4148C79.798 43.1779 80.9931 42.3812 82.3423 42.3812C83.6915 42.3812 84.8866 43.1801 85.3972 44.4214L79.283 44.4148H79.2808ZM94.2384 49.0302C93.3426 49.0302 92.5041 48.6781 91.8746 48.0398C91.2429 47.3993 90.904 46.5519 90.9172 45.654C90.9436 43.9042 92.4424 42.4054 94.19 42.3812C94.2054 42.3812 94.223 42.3812 94.2384 42.3812C95.1166 42.3812 95.9441 42.7201 96.5736 43.3408C97.2141 43.9702 97.5662 44.811 97.5662 45.7068C97.5662 47.5402 96.074 49.0324 94.2384 49.0324V49.0302ZM106.372 49.0302C104.539 49.0302 103.049 47.538 103.049 45.7046C103.049 43.8712 104.539 42.379 106.372 42.379C108.206 42.379 109.693 43.8712 109.693 45.7046C109.693 47.538 108.203 49.0302 106.372 49.0302ZM118.508 49.0302C116.675 49.0302 115.185 47.538 115.185 45.7046C115.185 43.8712 116.675 42.379 118.508 42.379C120.342 42.379 121.829 43.8712 121.829 45.7046C121.829 47.538 120.339 49.0302 118.508 49.0302Z" fill="white"/>
<path d="M35.5964 51.0243C35.2531 51.0243 34.967 50.9627 34.7381 50.8395C34.5092 50.7162 34.3265 50.5643 34.19 50.3817V50.7426C34.19 50.7998 34.1724 50.8483 34.135 50.8835C34.0976 50.9209 34.0514 50.9385 33.9941 50.9385H33.6002C33.543 50.9385 33.4967 50.9209 33.4593 50.8835C33.4219 50.8461 33.4043 50.7998 33.4043 50.7426V45.0488C33.4043 44.9916 33.4219 44.9453 33.4593 44.9079C33.4967 44.8705 33.543 44.8529 33.6002 44.8529H34.0206C34.0778 44.8529 34.124 44.8705 34.157 44.9079C34.1922 44.9453 34.2076 44.9916 34.2076 45.0488V47.0208C34.3507 46.8448 34.5356 46.6951 34.7601 46.574C34.9868 46.4552 35.2641 46.3936 35.5964 46.3936C35.9288 46.3936 36.1885 46.4486 36.4152 46.5608C36.6419 46.6731 36.8268 46.8249 36.972 47.0186C37.1173 47.2123 37.2273 47.4324 37.3022 47.6789C37.377 47.9254 37.4188 48.1829 37.4298 48.4514C37.4342 48.5439 37.4386 48.6297 37.4386 48.709C37.4386 48.7882 37.4364 48.874 37.4298 48.9665C37.4188 49.2416 37.3748 49.5013 37.3022 49.7478C37.2273 49.9943 37.1173 50.2122 36.972 50.4037C36.8268 50.5952 36.6397 50.747 36.4152 50.8571C36.1885 50.9693 35.9156 51.0243 35.5964 51.0243ZM35.416 50.331C35.7131 50.331 35.9464 50.2672 36.1159 50.1374C36.2831 50.0097 36.4064 49.8402 36.4812 49.6311C36.556 49.4221 36.5979 49.1976 36.6089 48.9577C36.6155 48.7926 36.6155 48.6253 36.6089 48.4602C36.5979 48.2203 36.5538 47.9958 36.4812 47.7868C36.4064 47.5777 36.2853 47.4104 36.1159 47.2805C35.9464 47.1529 35.7131 47.0869 35.416 47.0869C35.1474 47.0869 34.9251 47.1507 34.7469 47.2761C34.5686 47.4016 34.4365 47.5623 34.3485 47.7559C34.2605 47.9496 34.212 48.1477 34.2076 48.348C34.201 48.4404 34.1988 48.5505 34.1988 48.6781C34.1988 48.8058 34.201 48.9158 34.2076 49.0083C34.2186 49.2196 34.2671 49.4265 34.3485 49.6289C34.4321 49.8314 34.5598 49.9987 34.7337 50.1308C34.9075 50.2628 35.1342 50.3288 35.416 50.3288V50.331Z" fill="white"/>
<path d="M38.9299 52.5672C38.8837 52.5672 38.8441 52.5496 38.811 52.5165C38.778 52.4835 38.7604 52.4417 38.7604 52.3955C38.7604 52.3735 38.7626 52.3493 38.7692 52.3273C38.7758 52.3053 38.7868 52.2766 38.8044 52.2414L39.4647 50.6722L37.8272 46.8051C37.7986 46.7369 37.7832 46.6885 37.7832 46.6598C37.7832 46.6092 37.8008 46.5652 37.8338 46.5322C37.8668 46.4992 37.9109 46.4816 37.9615 46.4816H38.3819C38.4457 46.4816 38.4919 46.4948 38.5227 46.5234C38.5535 46.552 38.5755 46.5872 38.5865 46.6268L39.8895 49.7478L41.2277 46.6268C41.2453 46.5872 41.2695 46.552 41.3003 46.5234C41.3311 46.4948 41.3795 46.4816 41.4412 46.4816H41.8439C41.8946 46.4816 41.9386 46.4992 41.9716 46.5322C42.0068 46.5674 42.0222 46.607 42.0222 46.651C42.0222 46.6797 42.009 46.7303 41.9804 46.8051L39.544 52.4219C39.5263 52.4615 39.5021 52.4967 39.4713 52.5253C39.4405 52.554 39.3921 52.5694 39.3305 52.5694H38.9277L38.9299 52.5672Z" fill="white"/>
</g>
<defs>
<clipPath id="clip0_12167_38654">
<rect width="128" height="52.5672" fill="white"/>
</clipPath>
</defs>
</svg>
